<svg width="600" height="480" viewBox="0 0 600 480" fill="none" xmlns="http://www.w3.org/2000/svg">
<path fill-rule="evenodd" clip-rule="evenodd" d="M236.011 144.387C190.908 144.387 154.344 107.824 154.344 62.7202V0H298.731V144.387H236.011ZM187.911 72.1931H275.827C277.024 86.2472 270.268 114.355 233.664 114.355C197.061 114.355 187.911 86.2472 187.911 72.1931Z" fill="#ACACAC"/>
<path fill-rule="evenodd" clip-rule="evenodd" d="M361.568 144.386C406.671 144.386 443.236 180.95 443.236 226.054V288.774H298.848V144.386H361.568ZM407.343 218.404C407.814 223.91 405.359 232.192 399.554 239.121C393.817 245.971 384.896 251.383 372.533 251.383C361.442 251.383 351.944 245.988 345.169 239.01C338.327 231.959 334.59 223.643 334.59 218.229H330.472C330.472 225.103 334.95 234.393 342.214 241.879C349.547 249.435 360.051 255.501 372.533 255.501C386.236 255.501 396.273 249.451 402.711 241.766C409.083 234.161 412.025 224.836 411.449 218.054L407.343 218.404Z" fill="#ACACAC"/>
<path fill-rule="evenodd" clip-rule="evenodd" d="M443.236 144.387H380.516C335.413 144.387 298.848 107.824 298.848 62.7202V0H443.236V144.387ZM337.056 48.0488C334.92 50.5933 334.071 53.5819 334.229 55.4445L330.884 55.7303C330.635 52.8258 331.885 48.9839 334.483 45.8893C337.137 42.7287 341.278 40.247 346.89 40.247C352.038 40.247 356.337 42.7437 359.309 45.7982C362.223 48.7945 364.124 52.6071 364.124 55.5874H360.766C360.766 53.8007 359.473 50.7827 356.902 48.1399C354.387 45.5554 350.908 43.6051 346.89 43.6051C342.366 43.6051 339.136 45.5705 337.056 48.0488ZM385.694 55.4451C385.536 53.5802 386.383 50.5905 388.51 48.0463C390.583 45.5682 393.798 43.6051 398.299 43.6051C402.297 43.6051 405.76 45.5531 408.264 48.1374C410.824 50.7795 412.113 53.7982 412.113 55.5874H415.471C415.471 52.6095 413.579 48.7976 410.675 45.8007C407.716 42.746 403.432 40.247 398.299 40.247C392.704 40.247 388.578 42.7309 385.933 45.892C383.345 48.9867 382.101 52.8277 382.349 55.7297L385.694 55.4451Z" fill="#D2D2D2"/>
<path fill-rule="evenodd" clip-rule="evenodd" d="M217.065 144.386H154.344V288.774H298.731V226.054C298.731 180.95 262.168 144.386 217.065 144.386ZM214.876 203.097C214.876 210.543 208.839 216.58 201.391 216.58C193.944 216.58 187.907 210.543 187.907 203.097C187.907 195.648 193.944 189.611 201.391 189.611C208.839 189.611 214.876 195.648 214.876 203.097ZM265.754 203.097C265.754 210.543 259.716 216.58 252.269 216.58C244.82 216.58 238.784 210.543 238.784 203.097C238.784 195.648 244.82 189.611 252.269 189.611C259.716 189.611 265.754 195.648 265.754 203.097Z" fill="#D2D2D2"/>
<path d="M7.69482 450.711V367.07H63.0751V381.649H25.3789V401.579H59.3994V416.16H25.3789V450.711H7.69482ZM151.833 408.891C151.833 418.012 150.104 425.771 146.646 432.17C143.215 438.568 138.532 443.456 132.596 446.831C126.688 450.18 120.045 451.855 112.666 451.855C105.233 451.855 98.5624 450.167 92.654 446.792C86.7457 443.415 82.0763 438.528 78.6458 432.128C75.215 425.73 73.4998 417.984 73.4998 408.891C73.4998 399.769 75.215 392.01 78.6458 385.611C82.0763 379.213 86.7457 374.34 92.654 370.989C98.5624 367.614 105.233 365.926 112.666 365.926C120.045 365.926 126.688 367.614 132.596 370.989C138.532 374.34 143.215 379.213 146.646 385.611C150.104 392.01 151.833 399.769 151.833 408.891ZM133.903 408.891C133.903 402.982 133.018 397.999 131.249 393.943C129.506 389.886 127.042 386.809 123.856 384.714C120.671 382.617 116.941 381.568 112.666 381.568C108.391 381.568 104.661 382.617 101.476 384.714C98.2902 386.809 95.8124 389.886 94.0426 393.943C92.3002 397.999 91.4288 402.982 91.4288 408.891C91.4288 414.799 92.3002 419.782 94.0426 423.838C95.8124 427.895 98.2902 430.972 101.476 433.067C104.661 435.164 108.391 436.213 112.666 436.213C116.941 436.213 120.671 435.164 123.856 433.067C127.042 430.972 129.506 427.895 131.249 423.838C133.018 419.782 133.903 414.799 133.903 408.891ZM210.306 391.125C209.98 387.831 208.578 385.271 206.1 383.447C203.621 381.623 200.259 380.71 196.013 380.71C193.125 380.71 190.69 381.118 188.702 381.935C186.714 382.726 185.189 383.827 184.128 385.244C183.093 386.66 182.576 388.266 182.576 390.063C182.521 391.56 182.834 392.868 183.515 393.984C184.223 395.1 185.189 396.066 186.415 396.883C187.64 397.674 189.056 398.366 190.661 398.967C192.269 399.537 193.984 400.028 195.808 400.437L203.322 402.233C206.972 403.05 210.321 404.139 213.37 405.5C216.419 406.861 219.06 408.537 221.293 410.524C223.525 412.512 225.253 414.854 226.479 417.549C227.732 420.245 228.372 423.334 228.399 426.82C228.372 431.938 227.064 436.377 224.478 440.134C221.92 443.865 218.215 446.763 213.37 448.832C208.551 450.874 202.737 451.897 195.93 451.897C189.178 451.897 183.297 450.861 178.287 448.793C173.305 446.722 169.411 443.659 166.607 439.603C163.83 435.518 162.373 430.468 162.237 424.45H179.349C179.54 427.255 180.343 429.596 181.759 431.475C183.202 433.327 185.121 434.73 187.517 435.682C189.94 436.608 192.677 437.071 195.727 437.071C198.722 437.071 201.321 436.634 203.527 435.763C205.76 434.893 207.488 433.681 208.713 432.128C209.939 430.577 210.552 428.794 210.552 426.778C210.552 424.9 209.993 423.321 208.877 422.041C207.789 420.761 206.181 419.673 204.058 418.775C201.961 417.875 199.388 417.058 196.339 416.324L187.231 414.037C180.18 412.322 174.611 409.64 170.528 405.992C166.443 402.342 164.415 397.427 164.442 391.247C164.415 386.184 165.763 381.758 168.485 377.975C171.235 374.189 175.006 371.236 179.798 369.111C184.59 366.987 190.036 365.926 196.135 365.926C202.343 365.926 207.761 366.987 212.389 369.111C217.044 371.236 220.666 374.189 223.252 377.975C225.839 381.758 227.173 386.142 227.256 391.125H210.306ZM285.668 391.125C285.342 387.831 283.94 385.271 281.462 383.447C278.983 381.623 275.621 380.71 271.373 380.71C268.487 380.71 266.052 381.118 264.064 381.935C262.076 382.726 260.551 383.827 259.49 385.244C258.454 386.66 257.937 388.266 257.937 390.063C257.882 391.56 258.196 392.868 258.876 393.984C259.584 395.1 260.551 396.066 261.777 396.883C263.002 397.674 264.418 398.366 266.023 398.967C267.631 399.537 269.346 400.028 271.17 400.437L278.684 402.233C282.332 403.05 285.683 404.139 288.732 405.5C291.781 406.861 294.422 408.537 296.655 410.524C298.887 412.512 300.615 414.854 301.841 417.549C303.094 420.245 303.734 423.334 303.761 426.82C303.734 431.938 302.426 436.377 299.84 440.134C297.28 443.865 293.577 446.763 288.732 448.832C283.911 450.874 278.099 451.897 271.292 451.897C264.54 451.897 258.66 450.861 253.649 448.793C248.666 446.722 244.773 443.659 241.969 439.603C239.19 435.518 237.735 430.468 237.598 424.45H254.71C254.9 427.255 255.704 429.596 257.12 431.475C258.564 433.327 260.484 434.73 262.88 435.682C265.302 436.608 268.039 437.071 271.089 437.071C274.083 437.071 276.683 436.634 278.889 435.763C281.122 434.893 282.85 433.681 284.075 432.128C285.3 430.577 285.914 428.794 285.914 426.778C285.914 424.9 285.355 423.321 284.239 422.041C283.149 420.761 281.543 419.673 279.42 418.775C277.323 417.875 274.75 417.058 271.7 416.324L262.594 414.037C255.54 412.322 249.972 409.64 245.89 405.992C241.805 402.342 239.776 397.427 239.804 391.247C239.776 386.184 241.123 381.758 243.847 377.975C246.597 374.189 250.368 371.236 255.16 369.111C259.953 366.987 265.398 365.926 271.497 365.926C277.703 365.926 283.123 366.987 287.751 369.111C292.406 371.236 296.028 374.189 298.614 377.975C301.201 381.758 302.535 386.142 302.616 391.125H285.668ZM416.073 396.352H398.185C397.858 394.039 397.191 391.983 396.184 390.186C395.177 388.362 393.882 386.809 392.305 385.529C390.725 384.25 388.9 383.27 386.831 382.588C384.788 381.909 382.569 381.568 380.175 381.568C375.845 381.568 372.073 382.643 368.862 384.794C365.649 386.918 363.156 390.022 361.387 394.107C359.618 398.163 358.733 403.091 358.733 408.891C358.733 414.854 359.618 419.863 361.387 423.919C363.185 427.978 365.688 431.04 368.901 433.109C372.115 435.178 375.83 436.213 380.051 436.213C382.42 436.213 384.612 435.9 386.628 435.274C388.668 434.647 390.479 433.736 392.058 432.537C393.637 431.311 394.946 429.828 395.979 428.085C397.041 426.344 397.777 424.356 398.185 422.123L416.073 422.204C415.61 426.044 414.452 429.747 412.602 433.314C410.778 436.853 408.314 440.025 405.21 442.829C402.132 445.606 398.456 447.812 394.183 449.446C389.935 451.051 385.129 451.855 379.766 451.855C372.305 451.855 365.636 450.167 359.753 446.792C353.899 443.415 349.27 438.528 345.867 432.128C342.492 425.73 340.804 417.984 340.804 408.891C340.804 399.769 342.518 392.01 345.95 385.611C349.38 379.213 354.036 374.34 359.917 370.989C365.797 367.614 372.414 365.926 379.766 365.926C384.612 365.926 389.105 366.607 393.244 367.968C397.41 369.329 401.099 371.317 404.31 373.931C407.524 376.518 410.138 379.69 412.152 383.447C414.195 387.204 415.501 391.505 416.073 396.352ZM445.826 367.07V450.711H428.427V367.07H445.826ZM499.99 424.002V387.979H517.389V450.711H500.685V439.317H500.032C498.616 442.993 496.261 445.947 492.967 448.179C489.699 450.411 485.711 451.528 480.999 451.528C476.807 451.528 473.118 450.575 469.933 448.67C466.746 446.763 464.256 444.055 462.458 440.542C460.689 437.03 459.791 432.823 459.763 427.923V387.979H477.161V424.819C477.188 428.522 478.181 431.449 480.143 433.6C482.102 435.75 484.73 436.826 488.024 436.826C490.121 436.826 492.081 436.348 493.907 435.396C495.731 434.415 497.201 432.973 498.317 431.066C499.46 429.162 500.019 426.807 499.99 424.002ZM531.633 450.711V367.07H549.031V398.517H549.562C550.324 396.828 551.427 395.114 552.869 393.37C554.339 391.601 556.246 390.131 558.588 388.96C560.956 387.763 563.896 387.162 567.409 387.162C571.983 387.162 576.203 388.362 580.069 390.758C583.936 393.126 587.027 396.706 589.34 401.499C591.655 406.263 592.813 412.239 592.813 419.428C592.813 426.425 591.682 432.333 589.423 437.152C587.19 441.945 584.141 445.579 580.275 448.057C576.435 450.507 572.133 451.733 567.369 451.733C563.992 451.733 561.12 451.174 558.752 450.058C556.41 448.941 554.49 447.539 552.992 445.852C551.495 444.136 550.351 442.408 549.562 440.665H548.787V450.711H531.633ZM548.662 419.345C548.662 423.076 549.18 426.329 550.215 429.107C551.251 431.883 552.747 434.048 554.708 435.601C556.668 437.126 559.051 437.888 561.854 437.888C564.687 437.888 567.083 437.111 569.043 435.56C571.004 433.98 572.487 431.803 573.494 429.024C574.53 426.221 575.045 422.995 575.045 419.345C575.045 415.725 574.543 412.538 573.536 409.788C572.529 407.038 571.044 404.889 569.084 403.336C567.123 401.785 564.713 401.009 561.854 401.009C559.023 401.009 556.627 401.756 554.667 403.255C552.734 404.751 551.251 406.876 550.215 409.626C549.18 412.375 548.662 415.616 548.662 419.345Z" fill="#AFABAB"/>
</svg>
