<svg width="632" height="480" viewBox="0 0 632 480" fill="none" xmlns="http://www.w3.org/2000/svg">
<path d="M116.521 247.543H79.665V71.9468H170.301V107.82H116.521V141.739H170.301V177.612H116.521V247.543Z" fill="white"/>
<path d="M224.08 211.531H258.929V107.82H224.08V211.531ZM205.15 247.544V229.957H187.224V89.3955H205.15V71.9473H277.859V89.3955H295.785V229.957H277.859V247.544H205.15ZM188.228 72.5056H205.15V89.3955H188.228V72.5056ZM277.859 71.9473L295.785 71.9468V89.3955H277.859V71.9473ZM277.859 229.957H295.785V246.986H277.859V229.957ZM187.224 229.957H205.15V247.544L187.224 247.543V229.957Z" fill="white"/>
<path d="M403.343 247.543H312.708V211.531H384.413V177.612H330.634V160.164H312.708V89.395H330.634V71.9468H421.269V107.82H349.564V141.739H403.343V159.187H421.269V229.956H403.343V247.543ZM313.711 72.5051H330.634V89.395H313.711V72.5051ZM312.708 160.164H330.634V177.612H312.708V160.164ZM403.343 141.739H421.269V159.187H403.343V141.739ZM403.343 229.956H421.269V246.986H403.343V229.956Z" fill="white"/>
<path d="M528.829 247.543H438.192V211.531H509.896V177.612H456.119V160.164H438.192V89.395H456.119V71.9468H546.755V107.82H475.049V141.739H528.829V159.187H546.755V229.956H528.829V247.543ZM439.196 72.5051H456.119V89.395H439.196V72.5051ZM438.192 160.164H456.119V177.612H438.192V160.164ZM528.829 141.739H546.755V159.187H528.829V141.739ZM528.829 229.956H546.755V246.986H528.829V229.956Z" fill="white"/>
<path d="M92.6122 407.96V395.229H79.6572V280.851H106.293V381.891H131.478V280.851H158.113V395.229H145.158V407.96H92.6122ZM79.6572 395.229H92.6122V407.96H79.6572V395.229ZM145.158 395.229H158.113V407.556H145.158V395.229Z" fill="white"/>
<path d="M196.978 407.96H170.342V280.851H248.798V407.96H222.163V306.818H196.978V407.96Z" fill="white"/>
<path d="M287.662 407.96H261.027V280.851H287.662V407.96Z" fill="white"/>
<path d="M352.438 407.96H325.803V306.818H299.893V280.851H378.348V306.818H352.438V407.96Z" fill="white"/>
<path d="M456.078 407.96H390.578V280.851H456.078V306.818H417.213V331.371H456.078V357.338H417.213V381.891H456.078V407.96Z" fill="white"/>
<path d="M494.943 381.891H520.128V306.818H494.943V381.891ZM468.308 407.96V280.851H533.81V293.481H546.765V395.229H533.81V407.96H468.308Z" fill="white"/>
<path d="M610.338 16.853H16.0854V463.053H610.338V16.853Z" stroke="white" stroke-width="20.2105"/>
</svg>
