<svg width="1454" height="781" viewBox="0 0 1454 781" fill="none" xmlns="http://www.w3.org/2000/svg">
<path d="M36.2124 221.033V126.662C36.2124 88.6132 48.8212 66.585 74.0385 60.5773C85.8783 57.7405 102.101 56.3218 122.705 56.3218V65.5837C104.868 69.5888 91.7984 81.2706 83.4951 100.629C79.9586 108.972 78.1134 117.65 77.9595 126.662L77.2676 206.514C73.7311 231.713 71.1169 246.732 69.4256 251.572C64.1975 266.257 54.1261 275.686 39.2108 279.858V281.36C64.2746 287.868 76.9602 309.563 77.2676 346.443L77.9595 435.806C80.1121 450.16 84.8789 462.676 92.2597 473.358C100.563 485.537 110.711 492.963 122.705 495.634V503.893C102.716 503.893 88.9538 503.144 81.4192 501.642C64.6588 498.306 52.819 490.628 45.8996 478.612C40.2101 468.6 37.2889 453.665 37.135 433.803L36.2124 339.434C35.9049 307.393 24.4494 287.701 1.84595 280.359C20.6052 274.518 31.4457 263.337 34.3672 246.816C35.5973 239.974 36.2124 231.379 36.2124 221.033Z" fill="#EDEACB"/>
<path d="M1236.04 150.694C1235.43 151.362 1233.66 151.695 1230.73 151.695C1228.27 151.695 1226.12 151.362 1224.28 150.694L1209.29 117.401C1203.13 106.888 1194.75 99.7956 1184.14 96.1241C1173.69 92.286 1167.23 88.1138 1164.77 83.608C1162.46 75.9314 1158.01 64.1664 1151.39 48.3129V42.5555H1160.39C1172.23 46.5606 1181.84 50.3154 1189.22 53.8199C1201.37 59.6606 1209.52 66.4192 1213.67 74.0959C1215.97 78.268 1219.51 88.9481 1224.28 106.137C1228.73 122.324 1232.5 133.589 1235.58 139.93C1235.89 142.934 1236.04 146.522 1236.04 150.694ZM1223.35 454.335L1184.61 431.053V237.805H1223.35V454.335Z" fill="#EDEACB"/>
<path d="M1318.38 274.852C1317.61 276.687 1312.92 280.442 1304.31 286.116C1295.85 291.623 1290.62 294.377 1288.63 294.377C1287.55 294.377 1283.48 291.456 1276.4 285.615C1269.48 279.775 1265.41 276.02 1264.18 274.351L1289.55 252.323C1291.4 252.323 1301.01 259.832 1318.38 274.852ZM1318.38 418.287C1316.23 420.622 1311.23 424.459 1303.39 429.798C1295.54 435.141 1290.62 437.808 1288.63 437.808C1284.63 437.808 1276.48 431.136 1264.18 417.783L1289.55 395.756C1291.4 395.756 1301.01 403.268 1318.38 418.287Z" fill="#EDEACB"/>
<path d="M1452.85 285.616C1430.55 293.459 1419.25 313.068 1418.94 344.442L1418.02 438.81C1417.71 477.195 1405.49 499.14 1381.34 504.647C1369.66 507.318 1353.36 508.652 1332.45 508.652V500.89C1344.44 498.054 1354.67 490.46 1363.13 478.113C1370.66 467.099 1375.43 454.498 1377.43 440.316L1377.89 351.701C1379.27 341.521 1382.35 327.587 1387.11 309.897C1392.49 298.049 1402.18 290.289 1416.17 286.618V285.116C1401.57 280.943 1391.65 271.598 1386.42 257.08C1384.11 250.738 1382.27 242.644 1380.89 232.799L1377.89 211.772L1377.43 131.669C1377.27 116.817 1373.04 103.55 1364.74 91.8682C1356.44 80.1864 1345.67 73.1774 1332.45 70.8412V61.5794C1351.98 61.5794 1365.82 62.4136 1373.96 64.0826C1391.04 67.5871 1403.03 75.18 1409.95 86.8617C1415.95 97.0416 1418.94 111.977 1418.94 131.669V225.539C1418.94 241.059 1420.56 252.824 1423.78 260.834C1428.55 272.516 1438.24 280.777 1452.85 285.616Z" fill="#EDEACB"/>
<path d="M491.047 207.015H481.592H414.937L415.395 242.06C436.308 250.403 451.376 261.334 460.601 274.852C470.137 288.869 474.905 307.811 474.905 331.674C474.905 366.051 462.218 395.589 436.847 420.29C432.079 424.96 424.776 431.051 414.937 438.561C402.788 447.905 395.098 452.579 391.872 452.579C388.64 452.579 373.804 437.892 347.356 408.523C363.655 407.521 380.646 401.846 398.33 391.501C415.088 381.822 429.311 369.973 440.998 355.955C453.608 340.936 459.911 324.999 459.911 308.144C459.911 291.456 451.376 279.858 434.311 273.35C426.008 270.179 417.779 268.76 409.63 269.094C359.81 271.264 329.288 302.72 318.063 363.465L270.781 342.438C270.781 328.42 275.778 312.733 285.773 295.378C289.463 289.036 291.385 285.448 291.539 284.614C291.539 276.771 281.16 272.849 260.402 272.849C233.8 272.849 213.119 285.532 198.357 310.898C191.899 322.079 188.67 333.259 188.67 344.441C188.67 367.804 198.588 389.916 218.424 410.774L262.247 456.832C235.492 446.82 210.658 432.305 187.748 413.281C157.148 387.913 141.849 360.711 141.849 331.674C141.849 294.96 158.917 267.592 193.053 249.569C207.968 241.726 223.344 237.804 239.182 237.804C259.479 237.804 279.776 244.396 300.073 257.579C307.761 262.586 312.22 265.256 313.45 265.59C325.137 260.083 337.976 254.158 351.968 247.817C359.349 244.479 366.807 242.227 374.343 241.058L374.801 207.015H134.929V176.976H481.592H491.047H738.995H746.604H766.901C766.901 129.082 758.908 89.2807 742.914 57.5733C739.84 51.3986 733.92 42.1368 725.156 29.7877C716.852 17.9393 711.088 8.5105 707.855 1.50153H754.679C763.749 10.68 773.13 25.7826 782.818 46.8095C799.269 82.5221 807.495 125.911 807.495 176.976H954.651H959.722H1002.85V92.8685L1044.37 124.159V176.976H1155.78H1161.08H1245.72H1249.65H1334.53V207.015H1249.65H1245.72H1161.08H1155.78H1044.37V408.523C1044.37 414.198 1046.06 419.705 1049.45 425.044C1052.98 430.883 1057.29 433.803 1062.36 433.803C1085.27 433.803 1096.73 408.106 1096.73 356.706L1143.09 385.493C1125.4 428.048 1098.04 449.243 1060.98 449.075C1039.45 448.906 1022.69 438.229 1010.7 417.034C1005.47 407.854 1002.85 398.677 1002.85 389.498V207.015H959.722H954.651H808.417V271.597C817.492 265.923 832.331 258.497 852.934 249.319C861.393 246.816 871.619 245.564 883.612 245.564C900.064 245.564 914.748 250.487 927.664 260.333C942.119 271.18 949.345 285.198 949.345 302.387C949.345 325.583 937.122 342.438 912.67 352.952C902.522 357.29 893.761 359.46 886.38 359.46L939.89 430.05L910.596 453.08L828.257 346.944L843.476 312.65C851.628 315.153 860.16 316.405 869.08 316.405C882.151 316.405 892.838 313.067 901.141 306.392C910.519 299.049 915.209 288.536 915.209 274.852C915.209 261.501 906.444 254.826 888.915 254.826C876.615 254.826 863.544 261.251 849.705 274.101C839.863 283.279 830.87 294.376 822.721 307.393C812.879 323.08 807.96 336.514 807.96 347.695V452.579L768.289 433.306V207.015H746.604H738.995H553.554V367.47C553.554 378.151 555.628 389.165 559.783 400.512C568.238 423.71 582.232 435.309 601.758 435.309C628.055 435.309 648.042 423.374 661.726 399.511C672.339 381.154 677.642 363.882 677.642 347.695V248.067H724.462V461.342C720.772 459.003 713.856 455.415 703.707 450.577L677.181 437.808V417.783C659.036 432.137 643.507 441.233 630.59 445.069C622.748 447.404 613.445 448.574 602.68 448.574C568.544 448.574 541.867 432.305 522.647 399.761C513.883 384.909 509.499 368.722 509.499 351.199V207.015H491.047Z" fill="#EDEACB"/>
<path d="M273.247 703.333C270.649 707.306 267.461 711.151 263.682 714.868L299.464 757.354L291.315 763.89L255.534 717.944C251.282 712.304 248.389 708.267 246.854 705.832C245.437 703.269 244.728 700.321 244.728 696.989C244.728 694.425 245.614 691.926 247.385 689.491C249.275 687.056 251.223 685.262 253.231 684.108L262.619 692.183C263.918 689.747 265.04 686.607 265.985 682.762C266.929 678.789 267.402 674.88 267.402 671.035C267.402 667.447 267.225 663.153 266.87 658.155C266.516 653.157 265.985 648.927 265.276 645.467H232.506L227.723 635.662V632.971H304.955L309.915 642.968V645.467H277.322C278.148 650.593 278.857 656.297 279.447 662.577C280.038 668.729 280.333 674.111 280.333 678.725C280.333 684.621 279.388 690.132 277.499 695.258C284.466 700.129 291.374 702.564 298.224 702.564C302.475 702.564 306.372 701.987 309.915 700.834C313.576 699.68 317.177 697.886 320.72 695.451L323.731 710.061C316.528 714.163 309.265 716.213 301.944 716.213C293.087 716.213 283.698 711.92 273.779 703.333H273.247Z" fill="#EDEACB"/>
<path d="M420.313 642.967V645.467H400.473V763.121H397.994L386.657 756.008L387.011 721.019L386.657 720.827C373.667 732.234 362.213 737.937 352.293 737.937C346.271 737.937 340.543 736.591 335.111 733.9C329.679 731.208 325.25 727.235 321.826 721.98C318.519 716.726 316.866 710.51 316.866 703.333C316.866 695.515 318.46 688.722 321.649 682.955C324.837 677.187 328.852 672.83 333.694 669.882C338.654 666.806 343.673 665.268 348.751 665.268C356.072 665.268 363.04 667.639 369.652 672.381C376.265 677.123 381.933 682.698 386.657 689.106H386.834V645.467H304.466L299.684 635.662V632.97H415.353L420.313 642.967ZM346.094 725.633C352.825 725.633 359.969 723.262 367.527 718.52C375.202 713.65 381.638 707.947 386.834 701.41V700.833C383.055 695.194 378.213 690.324 372.309 686.223C366.523 681.993 361.091 679.879 356.013 679.879C350.227 679.879 344.972 681.288 340.248 684.108C335.524 686.799 331.863 690.26 329.265 694.489C326.667 698.719 325.368 703.076 325.368 707.562C325.368 712.689 327.317 716.982 331.214 720.443C335.229 723.775 340.248 725.441 346.271 725.441L346.094 725.633Z" fill="#EDEACB"/>
<path d="M527.552 645.467H507.713V763.121H505.233L494.073 756.201V686.223H466.086C458.41 686.223 452.741 687.953 449.081 691.414C445.538 694.874 443.766 700.257 443.766 707.562C443.884 714.483 446.187 722.045 450.675 730.247C455.28 738.322 461.48 746.524 469.274 754.855L464.669 760.238C455.103 750.754 447.132 741.141 440.755 731.401C434.496 721.532 431.308 711.471 431.19 701.218C431.19 692.375 433.492 685.518 438.098 680.648C442.704 675.649 450.557 673.15 461.657 673.15H494.073V645.467H419.676L414.893 635.662V632.971H522.592L527.552 642.968V645.467Z" fill="#EDEACB"/>
<path d="M514.33 603.941L501.399 618.167L488.468 603.941L501.399 589.715L514.33 603.941Z" fill="#EDEACB"/>
<path d="M630.738 642.968V645.467H611.075V763.121H608.418L597.082 756.008L597.436 712.753L597.082 712.561L551.026 755.047L541.461 743.512L597.082 697.565C591.531 691.926 586.158 688.081 580.962 686.031C575.766 683.852 570.452 682.762 565.02 682.762C561.241 682.762 557.403 683.403 553.506 684.685C549.727 685.838 545.535 687.376 540.929 689.299L533.489 674.88C536.56 673.599 540.811 672.189 546.243 670.651C551.675 669.113 556.163 668.344 559.706 668.344C565.728 668.472 571.81 670.138 577.951 673.342C584.092 676.547 590.528 681.032 597.259 686.8V645.467H526.581L521.798 635.662V632.971H625.955L630.738 642.968Z" fill="#EDEACB"/>
<path d="M737.901 645.467H718.062V763.121H715.582L704.422 756.2V686.223H676.435C668.759 686.223 663.09 687.953 659.43 691.413C655.887 694.874 654.116 700.257 654.116 707.562C654.234 714.483 656.536 722.045 661.024 730.247C665.629 738.321 671.829 746.524 679.623 754.855L675.018 760.237C665.452 750.753 657.481 741.141 651.104 731.401C644.845 721.532 641.657 711.471 641.539 701.218C641.539 692.375 643.842 685.518 648.447 680.648C653.053 675.649 660.906 673.15 672.006 673.15H704.422V645.467H630.025L625.242 635.662V632.97H732.942L737.901 642.967V645.467Z" fill="#EDEACB"/>
<path d="M790.958 642.967V645.467H771.296V763.121H768.639L757.302 756.2V645.467H736.931L732.148 635.662V632.97H785.998L790.958 642.967Z" fill="#EDEACB"/>
<path d="M952.194 642.968V645.467H932.532V763.121H929.698L918.715 756.201V712.176H918.184C912.515 714.868 906.611 716.213 900.47 716.213C891.613 716.213 882.225 711.92 872.305 703.333H871.951C869.353 707.306 866.165 711.151 862.386 714.868L898.167 757.354L890.019 763.89L854.237 717.944C849.986 712.304 847.093 708.267 845.558 705.832C844.14 703.269 843.432 700.321 843.432 696.989C843.432 694.425 844.318 691.926 846.089 689.491C847.978 687.056 849.927 685.262 851.935 684.108L861.323 692.183C862.622 689.747 863.744 686.607 864.688 682.762C865.633 678.789 866.105 674.88 866.105 671.035C866.105 667.447 865.928 663.153 865.574 658.155C865.22 653.157 864.688 648.927 863.98 645.467H831.209L826.427 635.662V632.971H947.411L952.194 642.968ZM896.75 702.564C905.371 702.564 912.692 700.321 918.715 695.835V645.467H875.848C876.675 650.593 877.383 656.297 877.974 662.577C878.564 668.729 878.859 674.111 878.859 678.725C878.859 684.621 877.915 690.132 876.025 695.258C882.993 700.129 889.901 702.564 896.75 702.564Z" fill="#EDEACB"/>
<path d="M1067.45 642.967V645.467H1047.62V763.121H1045.14L1033.8 756.008L1034.15 721.019L1033.8 720.827C1020.81 732.234 1009.35 737.937 999.434 737.937C993.411 737.937 987.684 736.591 982.252 733.9C976.819 731.208 972.391 727.235 968.966 721.98C965.66 716.726 964.007 710.51 964.007 703.333C964.007 695.515 965.601 688.722 968.789 682.955C971.978 677.187 975.993 672.83 980.835 669.882C985.794 666.806 990.813 665.268 995.891 665.268C1003.21 665.268 1010.18 667.639 1016.79 672.381C1023.41 677.123 1029.07 682.698 1033.8 689.106H1033.98V645.467H951.607L946.824 635.662V632.97H1062.49L1067.45 642.967ZM993.234 725.633C999.965 725.633 1007.11 723.262 1014.67 718.52C1022.34 713.65 1028.78 707.947 1033.98 701.41V700.833C1030.2 695.194 1025.36 690.324 1019.45 686.223C1013.66 681.993 1008.23 679.879 1003.15 679.879C997.367 679.879 992.112 681.288 987.389 684.108C982.665 686.799 979.004 690.26 976.406 694.489C973.808 698.719 972.509 703.076 972.509 707.562C972.509 712.689 974.458 716.982 978.355 720.443C982.37 723.775 987.389 725.441 993.411 725.441L993.234 725.633Z" fill="#EDEACB"/>
<path d="M1042 569.913C1047.08 569.913 1051.98 571.131 1056.7 573.566C1061.43 575.873 1065.74 579.141 1069.64 583.37L1065.21 590.868C1062.61 588.817 1059.48 586.959 1055.82 585.293C1052.04 583.627 1048.38 582.794 1044.84 582.794C1040.11 582.794 1036.16 584.396 1032.97 587.6C1029.78 590.804 1028.19 595.29 1028.19 601.057C1028.19 606.568 1029.84 612.271 1033.15 618.167C1036.45 623.934 1040.41 628.997 1045.01 633.354L1033.68 634.7V632.585C1027.77 627.331 1023.05 621.627 1019.51 615.476C1015.84 609.324 1014.01 603.044 1014.01 596.635C1014.01 591.253 1015.37 586.575 1018.09 582.601C1020.8 578.5 1024.35 575.36 1028.72 573.181C1032.97 571.003 1037.4 569.913 1042 569.913Z" fill="#EDEACB"/>
<path d="M1167.6 642.968V645.467H1141.39V681.032H1116.59C1106.43 681.032 1098.93 683.403 1094.09 688.145C1089.37 692.887 1087.01 699.36 1087.01 707.562C1087.01 714.355 1088.95 719.866 1092.85 724.095C1096.75 728.325 1101.18 731.401 1106.14 733.323C1111.21 735.117 1115.58 736.015 1119.24 736.015C1123.14 736.015 1126.98 735.694 1130.76 735.053L1122.79 714.483C1126.92 709.741 1131.82 707.37 1137.49 707.37C1142.57 707.37 1146.52 709.1 1149.36 712.561C1152.19 715.893 1153.61 720.058 1153.61 725.057C1153.61 728.645 1152.61 732.106 1150.6 735.438C1148.71 738.642 1145.93 741.398 1142.27 743.705L1158.57 775.041L1148.65 780.616L1135.54 746.973C1130.94 748.639 1125.5 749.472 1119.24 749.472C1113.22 749.472 1107.02 747.613 1100.65 743.897C1094.39 740.18 1089.13 734.797 1084.88 727.748C1080.63 720.699 1078.5 712.497 1078.5 703.141C1078.62 690.837 1081.46 681.801 1087.01 676.034C1092.67 670.267 1101.41 667.383 1113.22 667.383H1127.57V645.467H1066.81L1062.03 635.662V632.971H1162.64L1167.6 642.968Z" fill="#EDEACB"/>
<path d="M1220.83 642.968V645.467H1201.16V763.121H1198.51L1187.17 756.201V645.467H1166.8L1162.02 635.662V632.971H1215.87L1220.83 642.968Z" fill="#EDEACB"/>
</svg>
